<?xml version="1.0" encoding="UTF-8" standalone="no"?>
<!-- Created with Inkscape (http://www.inkscape.org/) -->

<svg
   xmlns:dc="http://purl.org/dc/elements/1.1/"
   xmlns:cc="http://creativecommons.org/ns#"
   xmlns:rdf="http://www.w3.org/1999/02/22-rdf-syntax-ns#"
   xmlns:svg="http://www.w3.org/2000/svg"
   xmlns="http://www.w3.org/2000/svg"
   xmlns:sodipodi="http://sodipodi.sourceforge.net/DTD/sodipodi-0.dtd"
   xmlns:inkscape="http://www.inkscape.org/namespaces/inkscape"
   id="svg2"
   version="1.1"
   inkscape:version="0.91 r13725"
   width="460"
   height="633"
   viewBox="0 0 460 633"
   sodipodi:docname="tree.svg">
  <metadata
     id="metadata8">
    <rdf:RDF>
      <cc:Work
         rdf:about="">
        <dc:format>image/svg+xml</dc:format>
        <dc:type
           rdf:resource="http://purl.org/dc/dcmitype/StillImage" />
        <dc:title></dc:title>
      </cc:Work>
    </rdf:RDF>
  </metadata>
  <defs
     id="defs6" />
  <sodipodi:namedview
     pagecolor="#ffffff"
     bordercolor="#666666"
     borderopacity="1"
     objecttolerance="10"
     gridtolerance="10"
     guidetolerance="10"
     inkscape:pageopacity="0"
     inkscape:pageshadow="2"
     inkscape:window-width="1276"
     inkscape:window-height="729"
     id="namedview4"
     showgrid="false"
     showguides="true"
     inkscape:zoom="0.52725814"
     inkscape:cx="422.24909"
     inkscape:cy="327.24226"
     inkscape:window-x="0"
     inkscape:window-y="37"
     inkscape:window-maximized="0"
     inkscape:current-layer="svg2" />
  <g
     id="g4141"
     transform="translate(1.2713901e-6,2.6822034)">
    <path
       style="fill:#fefe00"
       d="m 362.53958,186.75 c -0.13338,-14.222 -4.31874,-17.79593 -7.83177,-4.93096 -5.18924,-6.91764 4.59876,-6.43075 -3.32782,-17.30096 13.89905,2.07094 6.88987,6.16312 17.33145,14.94653 7.05363,-21.81029 6.568,18.16563 -6.17186,7.28539 z"
       id="path4151"
       inkscape:connector-curvature="0" />
    <path
       style="fill:#fefe00;image-rendering:optimizeQuality"
       d="m 240.17258,621.77258 c -51.08162,-3.85477 52.55776,-32.88552 -5.88104,-9.5892 -25.62409,9.44637 9.93717,7.72729 5.88104,9.5892 z m 47.05155,-18.18002 c -43.63605,-16.0017 -20.98286,-48.94928 -22.76664,-93.90544 2.55045,-42.22628 3.86714,-84.97019 -3.61292,-126.80383 22.13965,5.6295 26.89396,-34.05053 52.53534,-33.9147 2.47129,-40.4406 34.75087,-5.18477 -3.33971,5.17202 -58.84439,29.93601 -24.15558,108.21961 -32.04836,161.69681 0.98951,26.92379 -5.15299,81.26534 9.23229,87.75514 z M 264.52044,376.06439 C 244.78756,315.31674 70.098588,328.30169 85.672002,306.18081 c -10.457587,-3.576 -75.635813,1.06729 -41.073512,-14.74208 21.829469,-25.00014 53.989829,20.053 52.886482,-23.90267 -32.31237,-20.69324 30.079708,-11.11217 1.186379,5.41315 55.772199,40.4301 136.302879,27.87022 173.399199,-15.97346 17.31423,9.8875 27.16707,39.8423 21.07235,-1.02011 12.59003,-24.18016 18.51671,59.02995 -18.73339,33.97264 -9.19629,-27.40646 -5.06676,46.06053 2.72834,9.68915 23.86263,8.27498 40.93263,9.44095 53.3584,-17.95783 29.93695,-9.05283 57.5264,-6.51251 39.86533,-32.16133 26.16623,20.18626 -26.69676,-30.23551 -0.91091,-7.21465 5.94856,-26.75354 -56.11579,-23.63656 -53.4724,-8.0614 1.13921,-32.43896 -22.84269,-12.66754 -32.49894,-26.52373 21.76033,-48.33913 32.54176,43.45042 45.87657,-3.00782 20.98246,-19.60952 44.82331,-12.73024 45.8372,-35.44451 5.21446,3.88186 16.88027,39.26752 38.19664,13.74317 -5.34399,28.50832 -56.26052,47.97737 -33.88559,6.67141 -56.41531,6.13999 29.26049,95.52566 23.92824,28.06876 2.12622,-34.21447 44.42431,-0.50659 12.37327,2.19489 -20.55964,20.42703 -1.88391,50.5883 -2.21251,46.69551 -18.00598,-13.87555 -45.60731,6.99943 -8.38196,9.09548 63.77972,-3.05917 -5.80795,75.59882 -17.404,28.65522 -23.62567,3.31968 -36.99549,0.99821 -36.97457,-21.95368 -24.79602,15.71226 -60.96463,76.42581 -100.64914,48.8503 -25.64127,12.71861 -5.94493,35.64747 2.99758,26.00335 3.44498,6.47997 8.62332,11.89951 11.33938,18.79382 z m -2.35217,-52.59441 c 13.84937,-44.9402 -24.56601,1.03232 0,0 z m 36.39294,-4.56903 c -11.78935,-29.44785 -30.52133,-0.59358 0,0 z m -53.88484,-5.70606 c 38.64238,-15.1092 -9.42687,-37.09985 -11.54368,-14.64764 27.09555,-19.03619 -6.20924,29.42044 11.54368,14.64764 z M 379.37565,298.25 c 10.02247,-29.97633 -38.23803,-3.40137 0,0 z M 254.59196,291.5 c 34.27282,-22.18836 -23.93367,-12.53326 0,0 z m 19.76641,-14.37138 c 36.5015,-12.84959 -30.71828,-11.77529 0,0 z m 112.81289,-65.78361 c 13.38699,-24.56042 -24.04195,-3.22051 0,0 z M 198.25,342.26935 c -30.89103,-23.76314 39.45884,-10.66861 0,0 z m -11.7269,-60.24382 c -18.56726,-9.01127 -10.29353,-35.83006 -0.39882,-23.23305 6.46197,-29.80914 11.96059,21.92191 0.39882,23.23305 z M 45.305764,277.57295 c 17.020149,-8.54261 -29.642844,-9.29916 3.665417,-19.6232 39.012156,-7.58825 -13.053753,-44.21536 23.623169,-31.87251 27.92101,26.44392 -8.408263,43.72398 -27.288586,51.49571 z M 317,277.86343 c -4.42467,-24.00903 17.29192,-64.4466 26.36504,-20.03225 2.36841,23.83569 -22.5183,3.23334 -26.36504,20.03225 z M 128.56445,272.5 c -15.7221,-8.18194 25.72392,-18.26827 -4.99726,-23.85096 14.04187,14.34921 40.24927,-17.57824 44.25041,7.79765 -22.8259,-0.084 -12.85624,6.97261 -39.25315,16.05331 z m 85.30793,-2.69098 c -28.23591,-17.8221 -21.45469,-41.42348 -0.33491,-13.28613 6.26275,2.38033 5.61312,10.88307 0.33491,13.28613 z m 227.12054,-2.32765 c 12.6571,-14.3735 -21.59904,-40.06409 12.31036,-46.63636 11.52941,12.40859 -14.44442,14.90054 5.60884,27.87861 -27.15711,-17.20433 15.04547,32.58081 -17.9192,18.75775 z M 122.07895,241.36663 c 10.12401,-27.86833 69.97008,-15.34019 34.34018,-7.22685 -12.92308,-8.60193 -22.87802,1.55948 -34.34018,7.22685 z M 92.25,227.98714 c 11.45142,-34.45371 -49.328207,-0.99617 -8.770655,-25.42942 0.968155,3.35271 12.687416,-11.95858 -10.524704,-15.6883 19.557243,-15.28697 35.744529,27.3506 19.295359,41.11772 z m 93.44497,-6.33964 c 5.60682,-26.088 52.87655,-14.58453 7.40657,-4.99462 z M 147,216 c 8.45259,-22.28672 41.97558,-27.52894 5.5713,-4.26778 10.30819,2.13093 -3.02979,8.5381 -5.5713,4.26778 z m 80.94522,-9.64408 c -4.87339,-20.50562 -7.0515,-13.31243 16.11561,-15.56799 -15.88525,0.92075 1.34228,22.44017 -16.11561,15.56799 z M 36.717944,198.95169 c -33.6059374,-1.73227 -41.3770136,-62.12922 -7.398782,-42.22185 -37.8073113,29.77915 29.700034,22.67574 7.398782,42.22185 z m 110.776526,3.03936 c -36.06395,-20.86923 -8.20102,-24.47932 7.28243,-12.06396 -0.22995,5.37188 -4.34686,8.35346 -7.28243,12.06396 z M 232.75,185.53047 c -9.52703,-10.33678 -14.01912,-1.28608 -25.38078,-17.77815 11.12148,-30.67865 28.34922,24.63379 26.52451,-9.35967 43.18934,0.49513 14.45538,25.48357 -1.14373,27.13782 z M 251.8,174.8 c 4.51455,-28.65795 -32.72206,-1.63763 0,0 z m 39.16173,10.59935 c 35.53997,-30.24642 -63.06691,-28.41654 -5.24794,-46.9005 -7.00126,27.39563 44.02774,8.32583 16.94522,43.1973 l -5.14239,3.27542 -6.55489,0.42778 z m -186.8346,-7.02286 c 18.97786,-4.4084 -7.734664,-65.05285 9.62049,-18.1959 4.65598,11.93448 27.42953,7.59486 -0.48229,17.47896 l -9.1382,0.71694 z m -75.779936,-7.20764 c 32.522835,0.41898 16.675845,-43.98472 -8.496516,-30.27181 21.403336,-12.84875 -8.00085,-16.55633 21.948345,-19.7117 7.130089,20.17681 20.864309,56.02053 -13.451829,49.98351 z m 66.979169,-5.74925 c -34.201041,-29.86596 27.961527,-7.58767 0,0 z M 337.81955,165.75 c -25.31412,-25.4687 24.8023,-25.62938 0,0 z m -179.15288,-3.41667 c 13.48962,-9.01337 -8.90038,-37.10499 -3.62091,-10.22435 -12.88459,-41.30123 42.32979,-24.88922 3.62091,10.22435 z m 201.26314,-3.34852 c -23.29666,-17.07802 21.35469,-61.68608 -16.65395,-33.13278 -31.31614,15.2239 -40.35215,5.07308 -18.13072,-20.18712 -13.44807,-5.735478 -1.21426,-28.59689 -23.11122,-14.356076 1.38704,4.147266 -21.13838,-2.535743 -0.0537,13.909186 28.77035,30.55036 -57.1574,-40.544335 1.28108,-29.892057 -11.25642,-14.550163 2.08691,-42.515517 7.5667,-3.546611 17.30757,23.851391 25.46069,-11.019884 36.01611,-14.269266 -23.37644,-3.448939 -41.57362,1.136532 -24.10138,-26.864141 -3.3829,-16.89833 13.98051,1.823869 10.30126,-17.998616 16.37282,8.147471 -19.30567,50.497747 18.16735,30.17601 -3.45945,-28.859926 29.50339,-3.55188 8.1238,12.210073 18.45633,15.347632 -51.62537,33.424418 -22.51933,46.278868 5.84411,25.08474 48.82095,-0.29519 14.08653,-1.626316 -7.79899,-25.787303 24.33769,5.725686 23.43555,-1.723741 13.96376,10.344957 6.35183,11.148217 16.05369,17.689967 -18.5759,20.07172 -32.9338,5.46596 -25.7863,39.11065 13.49001,7.12171 -1.45473,4.5938 -4.67552,4.22197 z M 235,152.16667 c -5.11096,-16.29726 3.71221,-46.34201 6.55777,-29.21795 -11.06275,6.75586 5.97733,24.82206 -6.55777,29.21795 z m 174.62941,-3.35329 c -30.09188,-45.765 28.60304,-20.95696 0,0 z M 74.186346,141.78635 c -24.669163,-23.107 36.503884,-32.03488 -6.492917,-40.22356 -3.525907,-48.875978 60.618161,6.84958 21.487513,16.3016 -10.67536,13.00075 -5.849802,17.66533 -14.994596,23.92196 z m 182.822794,-4.27534 c -23.86799,-22.17155 59.76066,-48.136462 13.23672,-24.08669 -2.0561,12.22846 -23.88978,5.85017 -13.23672,24.08669 z M 269,136.5 c -5.96307,-35.79038 49.90917,-7.67068 0,0 z m -126.15104,-0.81801 c -8.27086,-16.62539 -10.01471,-29.00025 -8.11992,-29.47538 31.43412,-9.995588 -7.65077,31.06699 13.11653,25.12108 l -4.99661,4.3543 z m 106.28301,-22.596 c 12.46743,-30.954286 -14.90703,-33.173769 -27.25588,-9.92189 -28.58277,9.26052 -39.69467,-23.513555 -5.35471,-7.894722 17.32457,10.192162 5.74861,-22.484646 29.44426,-17.576603 5.25288,-13.056548 -19.13364,-11.148648 10.43724,-18.459034 13.31349,-9.466831 -9.38273,-47.219169 23.58361,-33.542599 -11.56756,-32.0741276 43.78585,7.905899 10.35672,9.269718 -32.06607,8.515842 -4.08948,27.757401 -23.1503,58.574417 -2.88379,-37.126174 -26.50676,-10.083484 -3.82603,9.880313 0.70442,8.77508 -11.43939,2.41853 -14.23491,9.6704 z M 124.60908,91.918201 C 112.39591,81.562208 64.405247,62.846983 108.64139,67.910799 c -0.94259,14.964007 63.10334,21.327736 15.96769,24.007402 z m 82.31678,-2.795464 c -6.92032,-22.753087 16.79828,-21.444047 11.86188,-13.492692 -2.20672,4.81721 -5.03011,13.202096 -11.86188,13.492692 z m 175.76181,-1.845006 c -17.3468,-14.124328 7.20589,-33.990091 -2.54129,-7.232209 0.15144,-1.034805 8.51831,7.400359 2.54129,7.232209 z M 175.5841,82.358556 c 17.76993,-10.910296 -37.69333,-16.846705 -2.04485,-14.678544 -5.80075,-32.362257 -48.8788,30.175867 -49.57743,-7.475421 18.74376,6.299927 46.44482,-0.856905 16.40505,-5.799617 15.69946,-19.91651 20.03763,-17.196935 36.76997,-33.712279 -20.41776,-15.7476519 27.69719,-7.895601 5.42842,3.836423 14.42656,-16.0509717 56.72122,39.645986 41.19273,6.452091 40.84788,-3.810477 4.94744,32.456757 -18.22164,27.121525 -13.83412,26.808665 -2.29277,-11.00925 -9.31083,-4.604101 -44.35458,-8.503706 1.28949,26.08698 -20.64142,28.859923 z M 184,48.428571 c 45.54414,-25.542205 -51.02498,-14.582826 0,0 z"
       id="path4147"
       inkscape:connector-curvature="0"
       sodipodi:nodetypes="ccccccccccccccccccccccccccccccccccccccccccccccccccccccccccccccccccccccccccccccccccccccccccccccccccccccccccccccccccccccccccccccccccccccccccccccccccccccccccccccccccccccccccccccccccccccccccccccccccc" />
    <path
       style="fill:#fe0000"
       d="m 240.56327,620.30429 c -26.38707,3.45677 -5.93133,-17.19317 10.09931,-11.33315 12.80697,-8.22236 10.98843,-49.36931 17.71775,-17.50865 11.1604,14.24101 58.34207,17.34262 17.51094,22.96375 -14.97449,2.66433 -30.09805,5.34551 -45.328,5.87805 z M 274.82301,390.75 c -6.70398,-18.68105 -33.77075,-42.11942 -26.34268,-58.16842 30.09121,-3.0455 3.03406,54.10294 32.43943,24.38184 13.3539,-1.17166 53.91076,-17.90967 17.78654,-0.84732 -14.15396,5.6937 -24.09642,19.19669 -23.88329,34.6339 z m -52.43105,-54.17094 c -27.4804,-27.07387 44.09518,-11.4356 0,0 z m 38.3092,-9.21123 c -17.71369,-7.17879 -2.96619,-30.04305 5.06331,-18.41106 -10.95444,3.13992 1.62469,13.2288 -5.06331,18.41106 z M 291.002,318.75 c -10.71753,-1.52593 -14.37554,-25.54684 1.45654,-8.58328 4.96339,3.05868 11.14306,15.07832 -1.45654,8.58328 z m 13.38925,-8.27562 c -28.19194,-15.76318 24.27993,-40.08701 -7.7503,-59.56499 -20.71094,1.85572 19.39772,29.98504 -7.50733,29.96931 0.11093,-23.40219 -19.05678,-38.6341 -31.99199,-11.86298 -14.97496,16.42374 -36.15113,18.22557 -57.18826,25.671 -9.01933,17.02216 -8.76008,-27.31575 -7.35859,-38.02739 -29.00055,-23.12529 11.6668,-1.77844 21.19242,6.99079 3.58561,-6.42198 -17.16425,-18.04798 0.39274,-26.83174 -8.83036,-34.76961 30.94232,-29.97581 39.62136,-58.79989 23.09869,-25.99153 -61.2786,-14.2155 -15.69015,-26.00798 18.25969,-6.3431 27.91174,-21.3505 50.41433,-23.31651 2.31393,-11.97301 40.41837,-12.95776 14.99558,-29.12978 -3.26626,-28.359563 41.94181,19.01091 9.12387,21.62555 -14.73107,21.56567 40.92019,14.0468 17.85689,33.63339 6.09699,6.69047 -14.32213,10.78502 1.03644,22.34136 -8.06277,20.28705 -22.69391,30.9268 -37.87174,14.22628 -28.04039,22.47573 11.82681,23.9627 18.69041,22.16455 -13.11998,21.07352 15.66983,26.43943 11.88531,6.29567 12.17796,19.85231 36.45409,-9.2342 45.38613,11.317 -20.09164,8.87816 30.32213,30.67248 -4.69721,20.27858 14.652,10.06723 12.95326,32.12735 -5.71703,21.87341 -28.318,14.51378 -17.24288,-12.30995 -5.35216,-18.53234 -10.16437,-21.60743 -29.94912,-26.58167 -39.98281,-3.75171 16.2956,13.3407 6.94378,48.58049 -9.48791,59.43842 z m -100.38233,-28.6244 c 36.40563,16.69935 53.18646,-38.68475 78.28196,-29.46525 27.18765,-9.28036 30.33824,-44.7286 -0.64909,-39.13971 -4.36196,-26.27869 -24.25825,-6.03815 -31.01578,-1.67777 -10.30248,-27.52368 -25.92755,14.64873 -7.33727,15.25323 -5.26141,14.63363 24.19419,32.20068 -0.40318,30.22213 -24.35775,1.79275 -11.2527,-3.92353 -11.87248,-16.15132 -20.86531,0.58201 -16.12751,8.84385 -10.42437,25.233 3.60963,18.80291 -32.65911,-2.21509 -21.24067,21.16301 l 4.66088,-5.43732 0,0 z m 106.49235,-0.1 c 13.5572,-7.59443 5.00446,-32.88323 -0.52969,-7.25088 -3.00539,1.74095 -6.15516,9.16788 0.52969,7.25088 z M 223.50082,235.0013 c 17.95326,-10.08573 -20.31034,-24.74183 -4.31415,-0.0561 l 1.89282,1.65569 2.42133,-1.59962 z m 73.08533,-50.54163 c 8.74099,-7.27548 31.36806,6.85637 12.31279,-11.50666 2.82585,-21.85822 -11.22769,-45.38423 -14.35393,-15.78549 -11.52581,-5.9656 -9.9564,-28.93611 -25.33926,-12.95779 -38.88983,9.95182 43.89638,10.92872 18.78079,37.14532 -2.91832,5.37511 7.04153,5.62787 8.59961,3.10462 z M 274.49331,176.75 c 2.82899,-16.24815 -26.71538,-24.62844 -14.94827,-6.24682 -2.96534,7.29829 10.8535,10.69886 14.94827,6.24682 z m 52.16608,-0.62501 c -5.36436,-26.06728 -30.06365,13.15352 0,0 z M 126.66667,299.33333 c 11.20229,-19.6181 -36.647425,3.99724 -12.56908,-22.4981 10.06209,-12.15027 43.55337,20.1767 16.11159,19.91072 l -3.54251,2.58738 z m -36.543635,-9.31701 c -19.696724,-22.50303 -31.660842,8.94361 -49.552719,-3.86556 10.225699,-11.56501 51.572209,-47.00057 54.342624,-15.52248 -10.145719,5.5 9.30437,28.14357 -4.789905,19.38804 z m -7.422725,-8.40485 c 23.42507,-19.81908 -26.674935,-16.15719 0,0 z m 167.96636,11.72186 c -15.87594,-19.48881 34.33398,-16.04635 3.70663,-2.25646 l -3.70663,2.25646 z m 14.91812,-1.97298 c 0.97896,-25.86548 23.78245,6.60497 0,0 z m -157.361,-22.53656 c -5.09998,-12.25327 20.64602,-38.49012 -0.1512,-27.28987 -12.070027,12.81553 6.85195,-14.67266 -14.992204,-6.34032 -7.111972,-20.05731 21.876424,-56.83856 -13.375227,-60.28378 0.08892,-43.7409 -21.801988,16.33609 -33.116042,25.48525 -9.538112,8.27343 0.550522,-22.08044 -22.116416,-20.61279 -12.787624,-21.5143 39.464741,-0.49259 27.936921,-25.47414 5.881846,-17.34875 15.323532,-28.36482 24.371572,-15.42213 6.21782,-4.98048 -4.60482,-16.72852 10.551226,-2.00906 10.1043,12.58552 -13.898925,20.86762 10.066342,30.53911 17.025028,12.11262 42.434508,21.22475 32.625408,44.17437 15.26243,10.99078 20.04469,-28.33935 17.16103,-1.46695 -10.91884,4.21354 -46.86051,13.4697 -18.04291,21.10637 27.14447,-15.4531 -27.18135,12.44019 -6.75805,24.22976 14.1773,-7.91937 12.83664,15.33846 -1.63778,8.62013 -2.94952,3.15276 -7.89573,8.24507 -12.52267,4.74405 z m 0.4151,-38.52114 c -2.25651,-9.5167 15.81562,0.362 2.95955,-17.22552 -9.66175,-10.49943 -18.858049,28.27107 -2.95955,17.22552 z m 14.81651,-22.04703 c -3.00118,-12.77834 0.68988,-37.12884 -13.56032,-12.57719 0.39371,6.83135 7.2866,11.58955 13.56032,12.57719 z M 51,259.06739 c 2.501321,-21.89026 -59.9408832,-17.38047 -24.140948,-37.47385 19.230152,14.11991 74.447918,-20.50726 37.777741,-42.48852 21.536166,-5.78283 -7.714771,13.45806 14.848143,11.11764 20.697874,23.98894 -46.053508,26.2326 -11.824019,47.92695 C 69.975817,249.29737 54.816422,250.91167 51,259.06739 Z m -4.43844,-25.26636 c 5.92616,-24.36283 -31.720391,12.81371 0,0 l 0,0 z M 164.5,236.21646 c -18.04574,-19.02368 62.14692,-39.60439 22.63937,-23.34274 6.39185,18.21781 -24.61135,3.73252 -14.5537,19.73207 -3.02849,0.48857 -5.49169,2.18991 -8.08567,3.61067 z m -4.18394,-21.11584 c -17.43668,-8.42695 36.19803,-24.46821 0.14228,-29.37628 -15.66203,-29.13895 28.734,24.55572 25.63044,-2.7813 -21.15747,-6.79475 -7.99226,-12.36643 5.48052,-0.13652 6.18145,10.17733 -18.22246,25.20334 -31.25324,32.2941 z m 219.85619,-4.19641 c -7.27267,-27.81191 26.62422,4.37875 0,0 z m -173.83194,-0.45977 c -7.18478,-12.02344 26.53334,-20.84344 -0.30019,-32.06312 -21.29304,-16.70771 42.01889,2.20048 10.6637,17.21713 -0.19485,6.52957 -1.50649,15.44784 -10.36351,14.84599 z m -68.69069,-21.23811 c 2.48981,-18.94225 -32.23582,-30.18618 -14.55562,-44.48507 -29.172017,-2.19144 -54.123813,-26.58514 -18.24057,-36.96532 12.34478,-7.58587 13.15065,-33.039805 28.18961,-13.126329 12.05719,-3.093503 25.55976,-6.909745 6.34883,3.344133 13.19587,2.703026 53.31198,7.680786 18.44508,16.237926 -3.68171,22.79725 -20.41698,8.2813 -7.61821,-9.34855 -38.17345,-2.31164 2.70629,33.01568 -13.10484,46.73338 21.12839,11.09994 20.76712,-30.99622 26.4623,-0.51634 1.51091,31.20366 -43.45993,-15.48051 -29.2564,24.45632 11.00018,11.10534 9.67031,1.57966 3.32982,13.66985 z M 114.9263,140.89637 c 24.11926,3.75384 10.09303,-29.77944 10.83809,-42.064213 C 109.6586,93.922999 70.939135,139.82772 114.9263,140.89637 Z M 202,166.93088 c 13.51713,-9.45385 -21.58335,0.30831 -5.28458,-11.9651 -21.71014,1.69119 -16.5141,-26.08729 3.56934,-31.37669 -7.48491,0.0954 -53.61064,-3.79089 -17.55336,-6.07527 14.04829,3.55429 3.54582,-11.54188 6.39162,-18.908126 -13.74196,6.065146 -44.27943,-41.02758 -18.58311,-19.787448 21.17835,17.716847 41.26307,-34.762 35.98063,5.907167 -8.25536,12.423297 -19.64056,22.419197 4.71102,19.698167 9.40883,-10.459393 45.14046,-10.451981 32.24538,4.86561 -3.27351,-3.24307 2.88226,24.27986 -17.21931,15.85091 -27.00009,-1.18759 10.28428,16.07075 -16.85781,15.81103 -25.55219,8.75977 21.20703,7.84366 -2.58165,22.72534 L 202,166.93088 l 0,0 z m -7.25,-20.91723 c 17.13673,0.74231 8.04224,-25.50846 -1.43494,-4.67375 -4.14747,0.55933 -6.88818,9.12416 1.43494,4.67375 z M 39.650689,156.4475 c -29.508199,5.632 10.599363,-27.83538 4.629588,-1.08705 l -4.629588,1.08705 z M 45.6875,141.35417 c -2.650896,-11.6397 8.834192,-43.759437 13.166626,-19.46986 -0.642759,8.07031 -3.57925,18.36954 -13.166626,19.46986 z M 260.5,121 c 4.881,-15.31293 -6.2407,-23.326439 15.68378,-16.87451 C 273.85681,110.29082 266.40753,117.42885 260.5,121 Z"
       id="path4145"
       inkscape:connector-curvature="0" />
  </g>
  <path
     style="fill:#203b36"
     d="m 310.1328,348.35891 c 74.14631,12.9917 -26.90181,-39.63818 0,0 z m 4.82093,-20.61999 c -17.59259,15.69938 28.59223,-2.84279 0,0 z m 8.41611,1.01151 c 25.35176,5.67086 -21.0456,-16.09186 0,0 z m 17.14779,-2.75437 c 61.9026,65.94075 9.21796,-45.12973 0,0 z m -4.36623,-13.79711 c 2.49974,31.88709 14.8513,-16.04027 0,0 z m 8.35738,-10.73179 c -15.75187,5.85332 27.0008,12.25409 0,0 z m -157.78788,30.27054 -0.63421,-2.52611 z m -6.17755,-2.95105 c -6.8e-4,22.45556 17.79214,-22.81313 0,0 z M 47.790673,276.31351 c -7.826075,14.58406 19.367778,-8.183 0,0 z m 217.482367,83.03071 c -43.92626,20.11997 19.69716,-31.66986 0,0 z m 4.9108,-2.5181 c 11.95862,32.796 8.11997,-23.47261 0,0 z m 3.62162,-9.02352 c -36.14365,29.30379 0.90514,-31.94265 0,0 z m -48.15188,-1.74595 c -19.5334,53.18559 -12.2434,-44.73795 0,0 z m -7.08874,-5.86655 c 24.8352,-18.16172 -27.44612,3.004 0,0 z m 66.17847,2.60601 c -24.31813,13.54521 1.17223,-17.94618 0,0 z m -94.67846,-15.33125 c 15.49731,-5.55889 -13.30749,25.12073 0,0 z m 4.29442,-1.28618 -1.01317,-2.24235 z m 29.11633,0.69773 c 16.63534,16.86414 -34.46995,2.70426 0,0 z m 53.39807,-5.52107 c -184.582447,207.76311 -92.29122,103.88155 0,0 z m -79.5144,1.97598 1.65748,1.60511 z m 200.37794,0.15636 c 3.42515,-61.69291 49.97562,48.63143 0,0 z m 47.27705,-35.07874 c 22.19935,-26.69469 -27.00882,12.2084 0,0 z m -12.47304,-7.67126 c -50.23894,61.99978 47.37615,3.9856 0,0 z m -234.98195,36.3 c 10.06352,18.25093 -29.00607,-8.49947 0,0 z m -82.95,-1.46233 c -7.51781,-30.51845 22.3424,25.79229 0,0 z m 8.01992,-3.08772 c -18.86476,16.84371 34.26907,4.92996 0,0 z m -5.30197,-3.16574 c -78.218147,215.78541 -39.109073,107.8927 0,0 z m 127.66995,4.80921 c -5.17464,39.57515 -18.25557,-19.21799 0,0 z m -143.6379,0.0143 c -10.948641,-16.43366 16.08069,9.15544 0,0 z m -4.736117,-5.05471 c -64.415435,215.93953 -32.207718,107.96977 0,0 z m 4.409247,-1.70053 c -67.354933,217.07322 -33.677467,108.53661 0,0 z m 136.40582,2.64456 -1.68968,-3.05483 z m 129.61371,-1.72839 c 26.63091,83.82647 -48.30999,-20.36102 0,0 z m -80.94266,-3.64205 c -48.95793,97.94931 -28.06167,-40.1864 0,0 z m 1.83775,-5.79389 c 13.88508,-17.27805 -16.20768,6.58474 0,0 z m -106.58775,5.43683 c -4.05064,-31.9607 25.52846,32.90388 0,0 z m 3.27808,-3.78727 c 12.41628,27.31209 3.94046,-23.56531 0,0 z m -40.46558,2.03461 1.50223,-1.22099 z m 176.06578,-2.56689 c -45.98081,17.57315 10.75614,-28.85768 0,0 z m 4.58234,-0.68628 c -6.42314,16.785 21.67563,-13.03902 0,0 z m -89.83425,0.7318 c -19.22573,-32.89474 -48.01168,35.53767 0,0 z M 83.734273,297.43993 c -6.800542,48.82074 -22.159869,-21.45905 0,0 z m 2.62332,-7.20329 -4.110894,-6.0263 z m 10.38572,6.55945 c 2.28369,-32.57005 17.117987,36.28396 0,0 z m 4.981147,-2.06769 c -20.905,48.9991 35.20812,-18.02485 0,0 z m 48.30148,2.84261 c -12.62702,-54.33076 38.0487,40.8429 0,0 z m 17.33333,-10.59778 c 8.441,18.73126 11.2849,-27.39946 0,0 z m -17.79174,1.58826 c 2.62684,-17.82034 -13.01004,18.06332 0,0 z m -2.7582,-3.70889 c -97.872887,232.09827 -48.936443,116.04913 0,0 z m 24.62889,3.13508 c -32.23806,22.61098 28.48126,0.96838 0,0 z m -16.07895,9.31955 c -22.25064,19.14357 0.62451,-17.00805 0,0 z m 212,0.091 c 3.69708,43.60855 -26.40898,-20.33487 0,0 z M 43.374583,294.48768 c -16.097811,36.10924 -8.326102,-25.78908 0,0 z m 220.234687,1.5 c 45.13021,11.16907 -26.15519,17.67691 0,0 z m 33.35699,-3.33179 c -15.74318,33.9465 -11.16142,-22.36451 0,0 z m 48.14731,-1.66821 c 9.15378,-14.30609 -1.19614,23.76029 0,0 z M 66.609273,290.1385 c 19.597908,8.06028 -27.930819,7.99075 0,0 z m 64.781877,-3.84125 c -33.030011,5.80139 18.94037,-15.78183 0,0 z m 261.63479,1.27415 c -6.76549,35.45096 -15.54336,-17.94082 0,0 z m -287.66667,-5.33372 c -41.986862,41.22508 -1.20575,-33.07558 0,0 z m -0.56422,-2.99529 c -69.863367,235.83841 -34.931683,117.9192 0,0 z m -3.56971,-5.87381 c -67.48356,239.75428 -33.74178,119.87714 0,0 z m 57.13522,8.6191 c -26.58607,-35.60133 41.32871,20.48002 0,0 z m -3.68523,-5.85062 c -10.3372,32.27195 19.66964,-12.45544 0,0 z m 21.68394,1.10062 c 28.88596,-24.37045 -28.95519,4.59124 0,0 z m 230.27913,-4.04062 c -6.06232,-15.61083 -1.62817,17.83847 0,0 z M 88.359273,280.7967 c -58.906182,234.8022 -29.453091,117.4011 0,0 z m 180.020767,-1.52022 c 4.67948,-32.60836 12.95999,35.22432 0,0 z m 6.97923,-2.31656 c -26.69056,22.50402 22.36702,4.62085 0,0 z m -161.32191,2.52776 c 3.44931,-29.31285 16.65284,35.3516 0,0 z m 5.89921,-4.84764 c -79.957713,238.90664 -39.978857,119.45332 0,0 z m 261.59886,2.54499 c -11.13399,-29.15531 18.64783,17.26362 0,0 z m 6.81402,-0.43552 c -9.1136,-16.72897 -0.91838,26.07175 0,0 z m 33.45552,-0.87216 c -17.35999,32.85178 24.36103,-11.20232 0,0 z m -339.819127,1.50018 c -26.911413,-17.30755 21.372297,1.09556 0,0 z m 282.207747,0.64476 c -22.8908,2.74851 14.43014,-10.57284 0,0 z m 2.6586,-5.77316 -0.82162,1.57887 z m -309.312207,3.91358 c 14.182246,-8.62068 -10.573058,23.71405 0,0 z m 286.069287,-4.33325 c 18.21924,39.89724 -27.81024,-8.38701 0,0 z m 51.29574,-2.84178 c -17.83247,28.73223 -7.09238,-20.80656 0,0 z m -286.96597,0.37908 c -21.20751,-11.27915 16.57544,-1.08916 0,0 z m 268.8029,-0.31892 c 1.09781,-15.37878 7.23415,17.41606 0,0 z m -195.88267,-3.81016 c -37.09284,-8.72279 29.72981,-8.91475 0,0 z m 3.39968,-1.97604 c -122.8393,246.49224 -61.41965,123.24612 0,0 z m 53.2515,0.6582 c 5.4703,33.93126 -16.89024,-13.35504 0,0 z m -30.75148,-0.44747 c 18.16971,24.7684 -19.55455,-5.10043 0,0 z M 81.637653,262.43089 c -54.425102,247.04607 -27.212551,123.52304 0,0 z m 68.253197,-0.14212 c 19.23126,-19.98467 -7.28059,37.23326 0,0 z m 124.56707,-1.26474 c 0.65866,-22.8146 10.61453,23.4465 0,0 z m 68.65135,-0.11871 c 27.32731,-8.05242 -23.63789,39.52092 0,0 z m 8.75,-0.66764 -0.97771,1.1604 z m -2.13837,-1.5 c -19.40664,-1.94325 21.98994,21.11824 0,0 z m 18.38837,3.78375 c 19.35278,12.05496 -30.55701,6.00668 0,0 z m 69.61706,-38.53375 c -16.02785,28.76845 22.00821,-4.3337 0,0 z m 3.59311,35.79799 c 2.51774,-18.05529 -11.70918,17.56719 0,0 z m -341.389087,-0.0799 c -34.095396,81.96894 -16.105438,-56.73701 0,0 z m -13.19888,-18.87366 c -3.936041,30.0779 27.425657,-23.15756 0,0 z m 19.414897,0.65553 c -19.453081,-6.84649 17.42969,21.51325 0,0 z m 11.35714,16.18333 c -34.192391,8.57725 9.79492,-23.96537 0,0 z m -38.269237,1.56667 c -23.582865,22.99766 -2.612612,-19.69226 0,0 z m 57.991307,-0.21539 c -24.29306,-46.38138 45.33746,27.59585 0,0 z m 5.33369,-6.98461 c 3.54292,-23.43238 -16.56821,22.06164 0,0 z m 3.40648,-3.82275 c 19.23403,17.14818 -2.52307,-19.23801 0,0 z m 9.38267,-4.80689 c -20.65461,-6.46327 16.85311,31.25915 0,0 z m 172.7946,10.00018 c -5.87092,21.19308 -6.24422,-16.81719 0,0 z m -125.91438,1.91019 c 22.35715,13.05401 -15.62452,5.69238 0,0 z m 186.68852,-1.98707 c -70.44151,-11.51721 61.93267,-34.86981 0,0 z m 6.2285,-10.89847 c -4.75547,20.57743 22.26748,-17.72391 0,0 z m 5.38232,-7.58365 c -267.01865,265.43388 -133.50933,132.71694 0,0 z m -11.84514,-11.36154 c -8.38296,-14.67433 -0.43347,24.051 0,0 z m -205.39615,8.11518 c 3.11603,49.07061 22.39527,-29.59076 0,0 z m 28.07258,15.16915 c -59.89239,-19.53889 60.94153,-17.62047 0,0 z m 0,-5.87377 c 32.90967,-4.65564 -13.48284,-13.75415 0,0 z m -12,-10.82719 c -57.06434,119.33784 70.78424,-25.29246 0,0 z m 30.27938,-25.87299 0.27538,2.06487 z m -4.26407,-2.32692 c -20.12016,1.66594 20.95309,11.83679 0,0 z m 100.65136,44.69991 -6.03457,1.74285 z m 9.34864,-0.0833 c 1.75397,48.31128 -22.94536,-17.94759 0,0 z m 0.70384,-6 c 33.36025,23.85314 -7.60644,-28.24281 0,0 z m 27.48085,4.54997 c -40.78294,19.26276 4.53309,-26.90744 0,0 z m 6.07303,-1.35128 c -1.6245,47.19061 24.56256,-20.44365 0,0 z m -146.27303,0.59833 c 9.35268,-22.54815 4.33472,33.48725 0,0 z m 91,0.15295 c -24.86215,30.19799 1.58257,-25.50633 0,0 z m -0.45888,-7.13347 2.36476,-2.4963 z m 134.45888,4.43347 c -30.66626,-23.9594 25.0291,0.6679 0,0 z m -333.33333,0.83333 c -21.100933,21.75992 -2.77346,-17.49279 0,0 z m 121.33333,-2.7566 c 21.81903,49.93769 -34.87678,-12.39671 0,0 z m 0.28567,-6.59231 c 20.03835,14.26441 -4.68953,-15.78525 0,0 z m 20.71433,5.51558 c -23.21611,12.3989 2.6829,-17.65672 0,0 z M 29.963013,237.64744 c 14.203759,-19.44534 -3.211275,30.67589 0,0 z m 237.999997,-3 c 1.09873,-18.15266 7.33633,18.66088 0,0 z m 43.06293,-2.07643 -5.45784,1.81082 z M 86.750193,230.6179 c 18.546547,62.97946 -37.098229,-25.06035 0,0 z m 5.60908,-1.4863 c -20.52134,-30.12543 0.865862,47.04309 0,0 z m 225.812497,2.42297 1.50223,-1.22099 z m 35.1875,-0.28171 c 3.70662,-15.51735 4.11204,17.77753 0,0 z m -248.77659,-0.59192 c -40.533234,17.94087 3.37438,-25.24217 0,0 z m 228.11854,1.11639 c -221.80081,267.46845 -110.90041,133.73422 0,0 z m -14.52945,-2.24276 1.50223,-1.22099 z M 43.956403,227.63019 c -29.304269,270.24654 -14.652134,135.12327 0,0 z m 105.581027,-1.8168 c -52.068052,5.08612 17.69799,-25.53956 0,0 z m 7.57184,-3.28288 c -5.94096,26.98433 31.1693,-20.23774 0,0 z m 64.88029,2.45719 c 18.61481,2.92824 -25.40959,18.58544 0,0 z m 51.54482,-0.4037 c -16.47169,28.61084 -6.53436,-21.28273 0,0 z m 76.07489,1.99142 c 23.10985,46.15122 -34.04746,-9.43235 0,0 z m 52.41667,-0.004 c 7.39065,-17.38402 3.52585,26.87033 0,0 z m 55.48451,-0.65117 c -24.23955,5.75692 19.69284,-17.09419 0,0 z m -338.46423,-0.92747 c -40.717158,-2.56809 19.11488,-13.58528 0,0 z m 16.81305,-0.65915 c -1.98109,-27.77951 13.04726,23.2521 0,0 z m 180.5,-0.0955 c -7.14707,56.58265 -25.8086,-34.10308 0,0 z m -267.799997,-3.2 c -5.61193,23.85113 -10.818818,-15.31933 0,0 z M 162.97982,217.8887 c -15.35519,-20.92931 19.92316,7.82952 0,0 z m 161.83833,1.28251 -2.39815,2.51521 z m 71.69957,-0.60922 c 4.31051,77.27226 -40.29624,-27.70032 0,0 z m 0.84155,-3.82425 c -264.90618,278.84151 -132.45309,139.42075 0,0 z m -291.03404,2.06297 c -25.519881,-14.1126 15.8986,-4.36561 0,0 z m 213.9883,-0.43368 -4.14242,3.72585 z M 89.966263,215.65592 c -27.938412,-8.99673 14.673777,-6.52822 0,0 z m 3.7867,-2.00177 4.017327,0.75321 z m 158.106307,2.58356 1.05222,-1.40469 z m -4.54584,-2.08565 c 7.7508,17.08364 -20.87033,-10.75432 0,0 z m 9.54584,0.59981 c -30.71785,6.59644 13.96026,-16.08473 0,0 z m -101.5,-3.01416 c -41.77055,42.76086 -1.52904,-34.35327 0,0 z m -2.87244,-9.25 1.629,3.3539 z m 205.9401,9.87643 c 0.85212,-38.81897 19.70225,37.9996 0,0 z m 4.11279,-2.37643 c -22.36551,38.30776 31.98057,-12.58953 0,0 z m 88.96938,2.94098 c -62.49162,-13.96125 67.8033,-39.99514 0,0 z m -9.14983,-7.69098 c -12.80805,-20.28515 2.04948,31.28731 0,0 z m 2.46665,-6.86668 c -16.05174,-2.48243 15.10451,12.89852 0,0 z m -20.85966,-10.71511 c -7.4804,-23.55087 -6.07017,31.87448 0,0 z M 317.7209,210.73771 c 17.28602,-14.51934 2.94922,37.03715 0,0 z m 18.65903,1.39332 c -224.25329,280.57931 -112.12664,140.28966 0,0 z m 71.04734,-1.85132 c 17.81338,11.52498 -30.31618,4.77456 0,0 z M 71.359273,209.16966 c 24.082895,3.90431 -26.862173,13.23527 0,0 z m 342.706117,-0.15005 c -34.79236,-29.16528 33.59498,6.63335 0,0 z m 6.88937,-2.93641 c -12.28061,36.44951 26.55238,-10.24795 0,0 z m -336.154357,1.59934 c 15.450497,5.95782 -20.198519,4.46408 0,0 z m 5.95586,0.3885 -1.944258,-3.18484 z m 8.7282,-1.4579 c 2.712507,32.21128 -17.502824,-13.51342 0,0 z m 15.541477,1.9579 c 14.7384,-5.92248 -12.98236,21.97947 0,0 z m 232.33333,-0.44032 c -23.09655,26.57045 -4.34601,-21.18862 0,0 z m 50.45264,0.51226 c -38.18793,-14.43567 25.94921,-5.16459 0,0 z m 6.80897,-2.65527 c 22.90193,25.17228 4.30921,-21.51562 0,0 z m -202.76161,1.25 c -24.76853,-1.22383 13.57284,-9.24058 0,0 z M 87.832953,206.2803 c -20.249767,-18.97587 35.709667,8.55748 0,0 z m 185.906317,-0.4947 c -4.55763,32.00254 -13.83355,-16.75683 0,0 z m -134.98631,-2.13145 c -4.31802,35.37299 -19.14855,-18.03391 0,0 z m 63.60631,-1.91644 c -0.89503,21.45905 -20.10751,-20.02392 0,0 z m 176.43851,-0.71323 c -37.87715,-2.63504 15.21519,-16.27886 0,0 z m -108.97963,0.1467 -4.39355,2.3712 z m 42.17949,-1.43347 0.6587,-2.31319 z m 4.36163,0.11663 c -28.08643,-0.20935 18.10578,-10.46921 0,0 z m -190.64326,-1.12936 c 22.1059,-12.92894 -15.83119,32.58766 0,0 z m 5.64326,-2.09426 -1.82071,-0.63607 z m 241.49447,2.59804 c -13.13786,24.81188 -6.55346,-14.99373 0,0 z m 79.16052,-0.81979 c -1.25192,25.26788 -13.00351,-15.93944 0,0 z m -144.40499,-0.42126 -2.97988,-3.86904 z m 28.80103,-1.15465 c -33.11398,-84.57519 74.46575,37.22348 0,0 z m 19.03947,-7.99901 c 42.4407,-25.75553 -42.46756,-0.99555 0,0 z m -20.26026,-1.49656 c 22.74387,12.26857 -5.94747,-15.92589 0,0 z m 34.66976,0.90022 c -15.4531,7.07496 24.81326,10.26233 0,0 z m -41.5,-2.49813 c 1.41274,21.43659 7.12094,-14.25442 0,0 z m 28.72917,-13.10604 -1.55908,-0.0193 z m 29.44209,-4.05082 c -15.8705,-5.40353 12.64197,26.61742 0,0 z m -29.10552,-1.38019 c -18.13765,-8.84112 13.88951,28.75415 0,0 z m 21.90284,-6.09819 c 34.49493,-22.94469 -34.69051,1.786 0,0 z m -32.83038,-4.33442 c 18.9066,24.12004 -0.87546,-19.59636 0,0 z m 6.8618,-8.03221 -0.1555,-2.90833 z m 40.70013,49.16092 -3.60769,2.74365 z m -233.39029,-2.09672 c -28.35403,18.36766 3.55308,-19.38755 0,0 z m -8.30984,-1.12264 1.71008,-1.16902 z m 261.17126,-1.53894 c 10.72924,15.01452 -24.60539,-0.26977 0,0 z m -332.671257,0.0974 1.125716,1.1841 z m 166.426997,-4.7273 c -20.73743,-5.91189 20.49601,25.27804 0,0 z m 147.81318,2.14854 c 0.1724,-42.04859 23.78006,40.55493 0,0 z m 5.35553,-2.13679 c -21.63763,16.13574 32.62585,3.19167 0,0 z m 8.15429,-3.72826 c 26.2211,13.49768 -4.67812,-21.64291 0,0 z M 94.394453,190.3035 c -27.932345,43.26687 -5.634917,-38.6609 0,0 z m 169.964817,0.93426 c 8.7003,33.11883 -21.85841,-7.50322 0,0 z m -177.850447,-1.25 c -34.698759,8.98476 19.955797,-17.84527 0,0 z m 0.85045,-4.75 c 23.921567,15.69177 -1.75266,-19.23286 0,0 z m 24.499997,5 c 4.83417,-33.45606 15.56263,36.86699 0,0 z m 62.48138,0.34901 c -19.7433,46.17965 -13.30265,-26.47004 0,0 z m 2.01862,-5.34901 c 14.47567,20.35648 1.56588,-16.92885 0,0 z m 134.875,5.28189 c -24.70773,31.831 -34.43558,-25.11852 0,0 z m 5.10969,-3.53189 c 24.60859,16.25442 -1.54228,-17.55689 0,0 z m 64.73042,2.4877 c -16.94975,-39.74183 35.22734,26.87831 0,0 z m 8.12437,-2.78475 c -14.1178,19.87754 34.26259,-3.39787 0,0 z m 6.07278,-9.05867 c 31.23675,14.44456 -7.04715,-22.06385 0,0 z m -247.97185,8.62836 c 36.73152,1.98271 -26.63174,31.66169 0,0 z m 143.05959,-0.96364 2.57506,1.11127 z m -184.33333,-3.72567 c -35.06797,7.92669 13.9106,-17.01413 0,0 z m 2.01644,-3.52083 1.29646,1.51384 z m 19.78551,2.6875 c -10.32901,-22.77253 17.67479,15.10772 0,0 z m 162.69389,0.6216 c -193.681187,301.09377 -96.84059,150.54689 0,0 z m -55.56579,-2.73016 -2.03342,-3.4542 z m 127.97336,1.03334 c -241.9529,302.22499 -120.97645,151.11249 0,0 z M 247.4179,176.06198 c 10.71488,88.87215 -50.69732,-13.95971 0,0 z m 0.53374,-5.72783 c 42.72075,21.73793 -14.9166,-35.01355 0,0 z m 58.65763,7.18598 c 12.3513,-24.06123 2.87474,34.50359 0,0 z m 6.09174,-6.68447 c -208.46734,308.10956 -104.23367,154.05478 0,0 z m 88.14818,3.38578 c -53.42719,-49.56029 74.83191,-2.43847 0,0 z m -15.275,-24.37819 c -39.23598,2.36707 34.383,26.53386 0,0 z m 7.94164,-32.59517 c -262.34389,343.83461 -131.17194,171.91731 0,0 z M 96.150773,171.20499 c -34.082989,31.957 -2.598293,-31.03922 0,0 z m 196.967267,-0.15655 c -36.81303,3.86438 11.85784,-17.64461 0,0 z m 6.9773,-1.66431 -1.72374,1.09825 z m -185.61726,2.49677 c -23.46754,48.7491 -16.898114,-36.02589 0,0 z m 7.99166,-2.39316 c 34.80012,-1.91156 -13.45047,-15.17744 0,0 z m 136.88953,2.98921 0.29459,-1.6742 z m 81.50493,-6.07353 c -227.2428,311.06439 -113.6214,155.53219 0,0 z m -314.651437,2.98521 c -40.709079,-6.16248 17.420518,-13.90002 0,0 z m 8.14651,-2.76752 c 26.799816,-10.94971 -14.431006,-7.88612 0,0 z m 11.25,2.27102 -6.542599,-1.69529 z m 2.38988,-3.44308 c 16.814529,10.19015 -8.300863,-24.9722 0,0 z m 103.360117,4.39568 1.95621,-2.52786 z m 173,0.51104 0.91251,-1.25186 z m -166.76793,-3.11803 c 9.94035,18.01036 -25.17017,-11.27214 0,0 z m -85.732067,0 0.955149,-1.3246 z m 207.699997,-1.2 c 0.15593,27.46425 -13.89982,-14.675 0,0 z M 78.966263,163.65595 c -4.855553,26.23904 -9.974933,-16.82766 0,0 z m 64.282677,-0.66821 c 9.15623,14.28062 -20.80989,-8.34765 0,0 z m 190.11033,0.75 -0.22923,3.21697 z m -172,-1.89839 c -16.38577,-26.2483 17.24044,8.61606 0,0 z M 33.372933,152.98774 c 5.517052,46.74945 21.237846,-24.29188 0,0 z m 36.98634,-55.021613 c -46.906182,356.689253 -23.453091,178.344623 0,0 z m 39.352307,0.510591 c 11.68283,31.475012 8.06233,-19.576986 0,0 z m 4.64769,-30.238972 c 7.92616,36.361424 11.04372,-25.435732 0,0 z M 103.67853,152.3506 c 16.32083,34.03633 11.75004,-26.04341 0,0 z m 115.68074,3.42232 c 18.92008,-15.96274 -31.24135,5.21789 0,0 z m 5,-1.53518 -0.95809,1.09108 z m 5.5,-2.40467 0.76366,4.15413 z m -11.51531,-2.27209 c 38.0034,47.06047 7.6748,-47.66889 0,0 z m 50.72594,12.05406 c 16.62549,-3.46244 -16.62467,22.93932 0,0 z m 3.28937,-1.81828 -1.10854,-0.78778 z m -21.42997,0.55429 -4.16315,-2.57299 z m -216.570027,-1.27998 1.381923,0.55502 z m 266.304687,-0.77621 c 23.18439,36.80867 -32.69621,-10.01379 0,0 z m 3.69531,-0.55712 3.81113,1.90008 z m -4.01499,-4.52801 c -200.22952,319.86018 -100.11476,159.93009 0,0 z m 20.01499,5.08703 1.55673,0.77311 z M 68.453533,156.36523 c 0.484132,56.72304 -28.933935,-24.67694 0,0 z m 1.90574,-7.62749 -0.155424,-2.90844 z m 109.538987,-9.91281 c 91.7538,24.79325 -27.69109,-48.516098 0,0 z m 95.97697,15.62039 c -34.71658,82.18548 -36.13658,-39.06043 0,0 z m -232.515957,0.79183 c -56.575521,-4.9155 25.344399,-21.63207 0,0 z m 38.41242,-1.49941 c -46.918811,26.96478 8.118681,-35.42479 0,0 z m 5.31675,-0.10417 -1.559081,-0.0193 z m 46.442087,0.50679 c 22.9308,-48.49715 17.39724,64.32929 0,0 z m 15.26616,-8.25663 c -99.197793,324.74418 -49.598897,162.37209 0,0 z m 10.42319,-10.97803 c -20.64097,0.81613 9.03177,30.7114 0,0 z m -9.1163,20.74302 c -15.02137,-31.59329 26.65847,20.99232 0,0 z m 88.75862,-0.66098 c -67.6264,-17.17088 56.19615,-17.63587 0,0 z m 6.32058,-5.74692 c 66.24993,-3.79595 -36.57433,-36.4778 0,0 z m 2.17649,-2.00308 -0.90426,-1.21921 z m 5,-5.77446 c 3.68714,31.17561 19.79792,-33.41772 0,0 z m -4.65099,-5.98124 c 2.48081,-23.3986 -14.09021,22.14761 0,0 z m 8.65099,15.2557 c -49.24801,-0.0285 19.6013,-27.80913 0,0 z m 6.25,2.10795 c -4.26503,40.59888 22.73532,-16.53771 0,0 z m 50.13881,2.1042 c -5.75848,28.28215 -13.53584,-14.23935 0,0 z m -59.65548,-3.83624 0.46664,-2.33721 z m 74.72555,0.0576 -0.38848,2.83101 z m 4.29112,-1.62284 c -11.37148,-47.81041 42.42567,40.61762 0,0 z m 3.51903,-2.96661 -2.637,0.0516 z m 6.16587,-2.31931 c -24.28132,61.71162 41.05153,-14.50879 0,0 z m -9.4349,-10.52475 c 6.9028,27.44891 8.6014,-17.52162 0,0 z M 82.859273,148.24948 c 16.047685,12.40364 -29.309014,1.92333 0,0 z m 150.499997,-4.01174 c -155.572847,325.84151 -77.78642,162.92075 0,0 z m -175.936747,0.42378 c -35.439687,-37.54655 52.237057,14.41144 0,0 z m 141.139987,-1.09889 c -28.6534,-8.16575 20.38348,-5.76867 0,0 z m -123.004457,-0.9378 c -50.372035,326.91678 -25.186018,163.45839 0,0 z m 119.301217,0.61291 0.95515,-1.3246 z m 165.13161,-0.78705 1.80058,-1.81836 z m -125.88161,-0.90228 2.28813,5.27928 z M 40.765513,139.08604 c 3.317029,-33.69478 17.601308,38.41913 0,0 z m 6.17316,-4.0983 c -23.997516,47.5267 36.064661,-15.57196 0,0 z m 209.102347,-1.18884 -8.49905,-2.90415 z m 3.73123,-0.0518 c -22.57944,29.01772 24.65084,-5.41464 0,0 z m -1.01103,-14.1296 c -172.50748,342.255 -86.25374,171.1275 0,0 z m 2.84805,-2.04204 -1.74221,-0.80505 z m 45.75,20.16228 c -204.90618,330.17484 -102.45309,165.08742 0,0 z M 26.109273,137.54841 c 18.95762,-5.81009 -16.4064863,27.32505 0,0 z m 5.035038,0.16184 c -20.762874,330.19317 -10.381437,165.09658 0,0 z m 54.866082,-0.15472 c -22.01779,-0.0396 14.480757,-7.78566 0,0 z m 105.680717,-0.89541 c -16.8731,-20.02758 23.28986,8.70966 0,0 z m 34.66816,0.62781 c 5.57617,36.20179 -23.34911,-11.34415 0,0 z m 3,-2.42775 c 14.6826,-15.18662 -15.5889,4.95713 0,0 z m 81.24572,2.22328 c -32.81687,1.87624 9.38975,-15.69751 0,0 z m 54.66657,-1.7778 c -23.89287,35.57962 -10.47163,-29.0016 0,0 z m 6.08771,-1.67557 c 33.47736,23.67548 -4.89325,-26.1375 0,0 z m -185.98469,-0.14235 c -40.62915,18.70835 11.23101,-24.59063 0,0 z m 93.20158,-0.5 c -56.68247,-39.197556 64.84018,-1.49009 0,0 z m 3.78311,-2.25 -1.38571,0 z m 4.72917,-11.10417 -1.55908,-0.0193 z m -4.73697,-4.64583 c 33.9748,35.98824 -1.79847,-36.511465 0,0 z m 16.7578,2.32431 c -21.32534,-16.44165 12.45323,34.10632 0,0 z m -27.75,-13.7843 c -23.23962,7.6955 28.31087,8.35638 0,0 z m 10.01365,-5.040004 c 8.08309,36.600064 15.64082,-19.355887 0,0 z m -4.01365,-1.416667 -1.38192,0.555016 z M 133.71601,131.72501 c 20.29601,-12.68907 -14.42186,30.62934 0,0 z m -9.99255,-2.98058 c -9.84689,-18.099 13.04532,9.52819 0,0 z m 285.9164,-1.25669 c 9.25678,35.51114 -20.30613,-13.17622 0,0 z M 47.609273,126.57546 c 2.342063,23.82481 -14.297363,-11.72092 0,0 z m 30.15026,-2.16029 c -11.912416,23.96899 -6.606752,-16.86941 0,0 z m -18.95867,-1.55415 c 19.888925,-43.549906 10.805464,54.40126 0,0 z m 25.75142,-6.37328 c -10.538495,36.85689 22.876407,-14.19994 0,0 z m -15.562066,-4.44437 c -45.993478,347.30442 -22.996739,173.65221 0,0 z m 26.738766,8.94437 c -3.304187,-32.645373 23.657217,31.88488 0,0 z m -25.36971,0.51642 c -1.425082,-18.35841 9.876239,16.64998 0,0 z m 170.187037,-1.32087 c -12.84976,-18.77548 24.17107,12.30512 0,0 z m 82.62546,0.37134 1.50223,-1.22099 z M 132.617,116.05089 c -32.41152,25.46605 0.0541,-27.534652 0,0 z m 7.64535,-3.42993 c 27.35457,5.97971 -7.81456,-15.240094 0,0 z m 169.76153,5.44225 c -9.22403,32.09616 -11.26266,-21.940256 0,0 z m 17.37057,0.24027 c -12.75477,37.20576 -14.47977,-26.268435 0,0 z m 70.63149,1.26759 c -57.18353,-18.63434 60.12839,-33.437291 0,0 z M 385.17263,78.479517 c 22.33786,16.132138 -4.57515,-21.012688 0,0 z m -18.4701,40.907003 c -244.46835,342.40899 -122.23418,171.20449 0,0 z m 14.87552,-1.0136 c -10.13639,-24.452884 25.91909,20.29823 0,0 z m 2.78122,-3.57179 c 21.70736,24.69885 -0.65818,-22.03461 0,0 z m -172,0.5199 c -11.08651,20.98195 -1.80517,-18.393417 0,0 z m 12.25,2.22734 c -32.02171,12.56487 8.38224,-16.89713 0,0 z m 42.75,-0.644 1.07086,3.91257 z m -56.84211,-1.66667 0.53679,0 z m 106.61272,2.13316 c -211.41992,343.75276 -105.70996,171.87638 0,0 z m 27.41472,-4.81538 c -26.93162,-11.62493 17.75556,-4.92741 0,0 z m -86.58653,0.0791 c 9.41519,-13.074212 -1.99034,23.67402 0,0 z m 73.99232,0.75057 c 7.42349,-14.143652 1.69654,24.09661 0,0 z m 30.40888,-1.17881 c 33.83321,51.40486 -49.04148,-5.60866 0,0 z M 252.71053,108.7107 c -31.3838,33.57391 8.48262,-38.641704 0,0 z m 0.64874,-5.47298 -2.65574,0.63104 z m -10,-5.466661 c 3.92046,32.090341 11.70822,-21.023291 0,0 z m 98.95818,7.388521 c -5.43241,34.28118 -14.88579,-18.495161 0,0 z M 75.359273,103.2377 c -28.102767,12.1972 4.455449,-19.223 0,0 z M 213.1487,103.703 c -35.02474,-34.316367 41.99895,12.17941 0,0 z m 3.53411,-2.06454 2.68483,1.79433 z m 12.49288,-5.142203 c 24.67932,10.892123 -5.22029,-19.758193 0,0 z m -5.15414,-1.508551 0.98216,1.721544 z m -6.36945,-5 c -1.58602,25.721344 14.9082,-15.769259 0,0 z m -34.29283,12.749994 2.18535,0.24446 z m 75.73356,-1.09977 c 0.24967,-21.047612 11.48221,22.90147 0,0 z m 5.26644,-2.400224 -1.71735,-2.5e-5 z m -75,0.619238 c -15.27758,-21.570361 16.34343,6.836556 0,0 z m 119.21057,-0.157275 c 13.2232,-18.75931 -2.75373,30.324441 0,0 z m 4.65111,-1.795296 c -208.81397,356.730417 -104.40698,178.365207 0,0 z m 35.86722,2.017149 c 7.30153,-14.840064 1.28856,23.318818 0,0 z m -51.7289,-0.883343 c 33.8419,37.965911 -39.50828,-4.564208 0,0 z m 33.50708,0.210981 c 2.08932,-26.784919 14.1675,30.54811 0,0 z M 132.10466,97.25331 c -1.24242,26.9223 -12.65182,-15.790953 0,0 z m 56.93162,-1.820014 c 0.43616,31.072624 -15.59632,-17.290896 0,0 z M 256.35927,95.1594 c -25.15794,40.32188 -6.55551,-26.595176 0,0 z m 1.03518,-2.855953 c 12.14005,34.044993 8.84873,-21.94462 0,0 z m 102.16482,1.734259 c -51.42253,-19.900037 51.24719,-11.207374 0,0 z m 2.9621,-5.897451 c 28.76156,46.759765 9.89547,-35.706474 0,0 z m 8.8379,-8.202549 c 48.79797,24.178014 -9.976,-32.924056 0,0 z m 34.97994,12.775834 c -12.27279,37.0216 -14.91573,-25.718107 0,0 z m -88.79949,-1.725834 c -14.18725,20.677894 -4.09142,-16.466175 0,0 z m -68.1015,-0.333333 0.5063,1.05396 z m 22.37993,-0.483198 0.32172,-0.984379 z m 100.04681,-1.924261 c 9.27763,-15.705322 -0.92453,22.737776 0,0 z M 120.9686,80.718116 c -22.62577,20.366624 40.00871,1.841885 0,0 z m 11.89067,3.51959 c -8.82205,26.666594 18.16952,-14.567504 0,0 z m 96.80347,2.052469 c -71.89473,61.159275 15.23338,-65.852883 0,0 z m 4.39713,-4.944658 c -20.88683,-14.973194 12.97769,33.359673 0,0 z m 13.2994,-4.282125 c -0.84154,17.887386 19.99349,-19.14645 0,0 z m -16.2098,-4.415286 c -20.89248,21.259926 18.01625,1.373218 0,0 z m -12.76039,-5.466094 c -0.25691,17.771008 17.71951,-17.178442 0,0 z m -6.02981,-3.885289 -0.87884,2.27788 z m 16.38777,-2.276047 c 8.32748,32.347692 9.32144,-24.340085 0,0 z m -52.38777,24.673193 c 66.56326,140.899131 -80.514154,-34.052062 0,0 z m 0.24502,-5.285122 c 19.16485,25.909843 6.11075,-22.910238 0,0 z m 111.75498,5.797574 c -59.69631,-29.758057 65.97969,-14.796616 0,0 z m 3.72917,-0.572782 -1.55908,-0.01929 z m 54.56147,0.494812 c -16.23765,-29.659219 34.51193,22.172019 0,0 z m 4.02084,-4.079151 c -2.46657,96.53943 43.63964,-35.121551 0,0 z m -162.56148,2.527861 c -59.19644,19.243879 35.77709,-49.805363 0,0 z m 5.03599,-3.399315 c 27.00676,23.227564 0.53988,-21.452085 0,0 z m 7.5562,3.315309 1.43203,4.043069 z m 71.85761,-1.095095 c 22.35377,-22.213194 -8.30663,42.18028 0,0 z m -64.1998,-0.660255 c -138.90618,366.841535 -69.45309,183.420765 0,0 z m 49.48537,0.112957 c 9.64288,-20.320047 3.29473,30.768678 0,0 z m 12.33437,-5.147524 c -180.11934,370.197912 -90.05967,185.098952 0,0 z m 39.84693,5.8679 c 16.79697,-40.210745 9.91957,52.024382 0,0 z m 5.58333,-2.725379 c 10.00321,26.962691 10.04139,-14.744902 0,0 z m 9.22888,-7.999741 c 7.61258,-17.315703 -13.17613,12.055287 0,0 z m -120.22888,4.866358 c 18.07242,21.687526 -34.36712,-7.561955 0,0 z m 98.07927,-3.630203 c -27.54137,14.580165 8.85794,-19.646078 0,0 z m 42.32799,-4.295162 c 13.39876,40.271679 -28.99426,-8.985973 0,0 z m -1.8187,-4.243734 c 0.94573,18.781379 17.07421,-18.702043 0,0 z m 28.19662,0.76027 c -3.97954,-18.066099 10.49505,15.478507 0,0 z m -134.49108,0.0056 c -35.64871,-50.066634 56.29098,18.955603 0,0 z m 5.01853,-4.002157 c 10.48727,29.126011 6.35645,-22.002447 0,0 z m 67.99782,-0.514695 c 2.9614,-24.825363 6.94643,23.668071 0,0 z m 7.43955,0.445491 c 27.83645,25.107426 1.85879,-23.810502 0,0 z m 9.52605,3.042143 c 25.16622,-20.052204 -12.40932,39.228251 0,0 z m 66.47395,-0.04214 c -61.84705,-2.953019 53.35073,-45.907916 0,0 z m -16.73165,-18.25 c 34.03586,-26.26644 -27.5157,1.102609 0,0 z m 6.48165,-8.563358 c -43.89666,42.08658 100.98737,8.462323 0,0 z m -243.36414,25.3765 c -5.85037,-15.912346 16.07166,14.892528 0,0 z M 89.421513,60.598476 c -12.027704,-38.020373 29.702707,28.640791 0,0 z m 5.0035,-0.395954 c 8.335847,30.309362 8.837907,-15.926494 0,0 z m 107.934257,-0.05452 c -20.18051,-22.650474 20.94607,6.755589 0,0 z m 6.56729,-2.676332 -1.26704,1.425036 z m 168.93979,-1.222507 0.82163,1.578874 z m -40.75708,-6.480055 c -28.41132,101.841532 -25.22118,-39.144207 0,0 z m -134.84689,0.718594 c -16.1632,-26.149212 28.74888,16.855935 0,0 z m 5.82485,-2.77458 c -138.72482,390.191248 -69.36241,195.095628 0,0 z m -32.22796,1.812531 c -16.63044,85.770137 -43.97415,-30.982073 0,0 z m 1.29183,-2.924695 c 26.41934,2.378349 -11.75407,-12.253545 0,0 z m 15.37377,2.502302 c 38.32889,82.72329 -51.86807,1.862524 0,0 z m 29.8344,-0.844396 c -7.99323,57.111316 -26.47634,-26.56779 0,0 z m 5,-1.898717 c 22.54862,-18.961653 -24.64787,5.168672 0,0 z m 85.71919,-1.088258 c 3.97852,31.193194 15.82314,-14.870242 0,0 z m -2.28922,-13.92088 c -1.81594,40.129092 18.48221,-20.844206 0,0 z m -64.10812,-11.30893 c 32.48733,0.177097 -12.81196,-19.07525974 0,0 z m 104.21565,28.256299 c -21.1126,22.561678 -1.80933,-17.646398 0,0 z m -13.79783,-2.128915 c -224.73263,391.220357 -112.36631,195.610177 0,0 z M 150.47877,44.520545 c -27.89299,20.327432 5.32916,-20.010709 0,0 z m 190.10969,-7.453652 c 5.18229,43.104555 -24.34972,-16.705728 0,0 z m -90.47919,-6.909291 c 17.16661,30.691972 -23.15939,-5.06915 0,0 z m 75.38922,-1.534938 c -29.3647,-7.188842 16.75775,-6.181226 0,0 z"
     id="path4138"
     inkscape:connector-curvature="0"
     sodipodi:nodetypes="ccccccccccccccccccccccccccccccccccccccccccccccccccccccccccccccccccccccccccccccccccccccccccccccccccccccccccccccccccccccccccccccccccccccccccccccccccccccccccccccccccccccccccccccccccccccccccccccccccccccccccccccccccccccccccccccccccccccccccccccccccccccccccccccccccccccccccccccccccccccccccccccccccccccccccccccccccccccccccccccccccccccccccccccccccccccccccccccccccccccccccccccccccccccccccccccccccccccccccccccccccccccccccccccccccccccccccccccccccccccccccccccccccccccccccccccccccccccccccccccccccccccccccccccccccccccccccccccccccccccccccccccccccccccccccccccccccccccccccccccccccccccccccccccccccccccccccccccccccccccccccccccccccccccccccccccccccccccccccccccccccccccccccccccccccccccccccccccccccccccccccccccccccccccccccccccccccccccccccccccccccccccccccccccccccccccccccccccccccccccccccccccccccccccccccccccccccccccccccccccccccccccccccccccccccccccccccccccccccccccccccccccccccccccccccccccccccccccccccccccccccccccccccccccccccccccccccccccccccccccccccccccccccccccccccccccccccccccccccccccccccccccccccccccccccccccccccccccccccccc" />
</svg>
